# xmcd CD database file
#
# Track frame offsets:
#	150
#	12880
#	24879
#	40543
#	55077
#	69679
#	82486
#	95635
#	107980
#	121885
#	135038
#	147033
#	156877
#	172365
#	182548
#	201910
#	218754
#	237830
#	249286
#	267057
#
# Disc length: 3892 seconds
#
# Revision: 1
# Processed by: cddbd v1.5.2PL0 Copyright (c) Steve Scherf et al.
# Submitted via: CDex 1.70beta2
#
DISCID=0f0f3214
DTITLE=Benny Goodman - The Essential Benny Goodman - CD2
DYEAR=2007
DGENRE=Jazz
TTITLE0=After You've Gone [1996 Remastered - Take 1] - Benny's Small Groups
TTITLE1=Runnin' Wild [1996 Remastered] - Benny's Small Groups
TTITLE2=The Man I Love [1996 Remastered] - Benny's Small Groups
TTITLE3=Moonglow [Previously Unissued] - Benny's Small Groups
TTITLE4=Flying Home [Instrumental] - Benny's Small Groups
TTITLE5=Rose Room - Benny's Small Groups
TTITLE6=Air Mail Special - Benny's Small Groups
TTITLE7=The World Is Waiting For The Sunrise - Benny's Small Groups
TTITLE8=Wholly Cats - Benny's Small Groups
TTITLE9=Rachel's Dream - Benny's Small Groups
TTITLE10=Ridin' High - Benny Live
TTITLE11=Sunny Disposish - Benny Live
TTITLE12=Body and Soul - Benny Live
TTITLE13=Sweet Leilani - Benny Live
TTITLE14=Roll 'Em - Benny Live
TTITLE15=Life Goes To A Party - Benny Live
TTITLE16=Avalon [Live] - Benny Live
TTITLE17=Swingtime In The Rockies - Benny Live
TTITLE18=My Gal Sal [Instrumental] - Benny Live
TTITLE19=Stealin' Apples - Benny Live
EXTD=YEAR: 2007
EXTT0=
EXTT1=
EXTT2=
EXTT3=
EXTT4=
EXTT5=
EXTT6=
EXTT7=
EXTT8=
EXTT9=
EXTT10=
EXTT11=
EXTT12=
EXTT13=
EXTT14=
EXTT15=
EXTT16=
EXTT17=
EXTT18=
EXTT19=
PLAYORDER=
